<?xml version="1.0" encoding="utf-8"?>
<!-- Generator: Adobe Illustrator 23.1.0, SVG Export Plug-In . SVG Version: 6.00 Build 0)  -->
<!DOCTYPE svg PUBLIC "-//W3C//DTD SVG 1.1//EN" "http://www.w3.org/Graphics/SVG/1.1/DTD/svg11.dtd" [
	<!ENTITY ns_extend "http://ns.adobe.com/Extensibility/1.0/">
	<!ENTITY ns_ai "http://ns.adobe.com/AdobeIllustrator/10.0/">
	<!ENTITY ns_graphs "http://ns.adobe.com/Graphs/1.0/">
	<!ENTITY ns_vars "http://ns.adobe.com/Variables/1.0/">
	<!ENTITY ns_imrep "http://ns.adobe.com/ImageReplacement/1.0/">
	<!ENTITY ns_sfw "http://ns.adobe.com/SaveForWeb/1.0/">
	<!ENTITY ns_custom "http://ns.adobe.com/GenericCustomNamespace/1.0/">
	<!ENTITY ns_adobe_xpath "http://ns.adobe.com/XPath/1.0/">
]>
<svg version="1.1" id="Layer_1" xmlns:x="&ns_extend;" xmlns:i="&ns_ai;" xmlns:graph="&ns_graphs;"
	 xmlns="http://www.w3.org/2000/svg" xmlns:xlink="http://www.w3.org/1999/xlink" x="0px" y="0px" viewBox="0 0 32 32"
	 style="enable-background:new 0 0 32 32;" xml:space="preserve">
<style type="text/css">
	.st0{fill:#FFFFFF;}
	.st1{fill:none;}
</style>
<metadata>
	<sfw  xmlns="&ns_sfw;">
		<slices></slices>
		<sliceSourceBounds  bottomLeftOrigin="true" height="32" width="32" x="0" y="0"></sliceSourceBounds>
	</sfw>
</metadata>
<g id="icons">
	<g id="Person">
		<g id="User">
			<path class="st0" d="M29.5,26.1l-3,1.5L23.7,21H15c-1.1,0-2-0.9-2-2v-6c0-1.1,0.9-2,2-2s2,0.9,2,2v4h7v-2h-5v-2c0-2.2-1.8-4-4-4
				s-4,1.8-4,4v1c-5,0-9,4-9,9s4,9,9,9c4.3,0,7.9-3,8.8-7h-2.1c-0.9,2.9-3.5,5-6.7,5c-3.9,0-7-3.1-7-7s3.1-7,7-7v3c0,2.2,1.8,4,4,4
				h7.3l3.2,7.4l5-2.5L29.5,26.1L29.5,26.1z"/>
			<path class="st0" d="M15.5,8C13.6,8,12,6.4,12,4.5S13.6,1,15.5,1S19,2.6,19,4.5S17.4,8,15.5,8z M15.5,3C14.7,3,14,3.7,14,4.5
				S14.7,6,15.5,6S17,5.3,17,4.5S16.3,3,15.5,3z"/>
			<rect id="_Transparent_Rectangle_" class="st1" width="32" height="32"/>
		</g>
	</g>
</g>
</svg>
