<svg xmlns="http://www.w3.org/2000/svg" width="32" height="32" viewBox="0 0 8.467 8.467" id="grayscale"><path style="-inkscape-stroke:none" d="m 547.49853,-80.34216 c -1.89649,1e-6 -3.43959,1.543094 -3.43959,3.439583 0,1.896489 1.5431,3.440099 3.43959,3.4401 1.89649,-10e-7 3.4401,-1.543611 3.4401,-3.4401 0,-1.896489 -1.54361,-3.439582 -3.4401,-3.439583 z m -0.26459,0.542086 v 0.435115 h -1.28829 c 0.37896,-0.239072 0.81709,-0.39285 1.28829,-0.435115 z m 0.52969,0 c 1.48571,0.133263 2.6448,1.376312 2.6448,2.897497 0,1.521194 -1.15907,2.764762 -2.6448,2.898015 v -0.687297 a 0.26458351,0.26458351 0 0 0 0,-0.01292 0.26458351,0.26458351 0 0 0 0,-0.01292 v -1.072286 a 0.26458351,0.26458351 0 0 0 0,-0.01447 v -1.083655 a 0.26458351,0.26458351 0 0 0 0,-0.01447 0.26458351,0.26458351 0 0 0 0,-0.01395 z m -2.44068,0.963248 h 0.22169 1.6893 v 0.571542 h -2.30786 c 0.10944,-0.206725 0.2428,-0.398311 0.39687,-0.571542 z m -0.61288,1.099675 h 0.10232 2.42155 v 0.569991 h -2.63291 c 0.0176,-0.196329 0.0546,-0.386986 0.10904,-0.569991 z m -0.10904,1.099674 h 2.63291 v 0.569991 h -2.52387 c -0.0545,-0.183083 -0.0914,-0.37357 -0.10904,-0.569991 z m 0.32505,1.098125 h 2.30786 v 0.569474 h -1.91306 c -0.15319,-0.172594 -0.28584,-0.363706 -0.3948,-0.569474 z m 1.01957,1.099674 h 1.28829 v 0.435116 c -0.47121,-0.04226 -0.90932,-0.196039 -1.28829,-0.435116 z" color="#000" transform="translate(-543.265 81.136)"></path></svg>